HIERARCHY
ROOT Hips
{
	OFFSET 0.000000 0.000000 0.000000
	CHANNELS 6 Xposition Yposition Zposition Xrotation Yrotation Zrotation
	JOINT LeftUpLeg_virtual
	{
		OFFSET 0.000000 0.000000 0.000000
		CHANNELS 3 Xrotation Yrotation Zrotation
		JOINT LeftUpLeg
		{
			OFFSET 15.427100 -6.655098 0.678600
			CHANNELS 3 Xrotation Yrotation Zrotation
			JOINT LeftLeg
			{
				OFFSET 4.081073 -39.591068 13.024000
				CHANNELS 3 Xrotation Yrotation Zrotation
				JOINT LeftFoot
				{
					OFFSET -4.081074 -37.707932 -15.979700
					CHANNELS 3 Xrotation Yrotation Zrotation
					JOINT LeftToeBase
					{
						OFFSET 5.346399 -15.068900 20.645000
						CHANNELS 3 Xrotation Yrotation Zrotation
						JOINT LeftToe_End
						{
							OFFSET 2.754700 0.931300 11.300900
							CHANNELS 3 Xrotation Yrotation Zrotation
							End Site
							{
								OFFSET 0 0 0
							}
						}
					}
				}
			}
		}
	}
	JOINT RightUpLeg_virtual
	{
		OFFSET 0.000000 0.000000 0.000000
		CHANNELS 3 Xrotation Yrotation Zrotation
		JOINT RightUpLeg
		{
			OFFSET -15.569500 -6.655098 0.678600
			CHANNELS 3 Xrotation Yrotation Zrotation
			JOINT RightLeg
			{
				OFFSET -4.081825 -39.591045 13.023800
				CHANNELS 3 Xrotation Yrotation Zrotation
				JOINT RightFoot
				{
					OFFSET 4.081824 -37.707954 -15.979600
					CHANNELS 3 Xrotation Yrotation Zrotation
					JOINT RightToeBase
					{
						OFFSET -5.346400 -15.068900 20.645000
						CHANNELS 3 Xrotation Yrotation Zrotation
						JOINT RightToe_End
						{
							OFFSET -2.754700 0.931300 11.300900
							CHANNELS 3 Xrotation Yrotation Zrotation
							End Site
							{
								OFFSET 0 0 0
							}
						}
					}
				}
			}
		}
	}
	JOINT Spine_virtual
	{
		OFFSET 0.000000 0.000000 0.000000
		CHANNELS 3 Xrotation Yrotation Zrotation
		JOINT Spine
		{
			OFFSET -0.279200 12.230698 -2.892100
			CHANNELS 3 Xrotation Yrotation Zrotation
			JOINT Spine1
			{
				OFFSET -0.232667 10.192268 -1.242267
				CHANNELS 3 Xrotation Yrotation Zrotation
				JOINT Spine1_split
				{
					OFFSET -0.232667 10.192268 -1.242267
					CHANNELS 3 Xrotation Yrotation Zrotation
					JOINT Spine2
					{
						OFFSET -0.232667 10.192268 -1.242267
						CHANNELS 3 Xrotation Yrotation Zrotation
						JOINT Neck_virtual
						{
							OFFSET 0.000000 0.000000 0.000000
							CHANNELS 3 Xrotation Yrotation Zrotation
							JOINT Neck
							{
								OFFSET -0.418800 17.814194 8.416900
								CHANNELS 3 Xrotation Yrotation Zrotation
								JOINT Head
								{
									OFFSET 0.000000 7.031097 3.806800
									CHANNELS 3 Xrotation Yrotation Zrotation
									JOINT HeadTop_End
									{
										OFFSET 0.000000 24.646606 12.978600
										CHANNELS 3 Xrotation Yrotation Zrotation
										End Site
										{
											OFFSET 0 0 0
										}
									}
								}
							}
						}
						JOINT LeftShoulder_virtual
						{
							OFFSET 0.000000 0.000000 0.000000
							CHANNELS 3 Xrotation Yrotation Zrotation
							JOINT LeftShoulder
							{
								OFFSET 8.476499 7.247704 -3.868750
								CHANNELS 3 Xrotation Yrotation Zrotation
								JOINT LeftShoulder_split
								{
									OFFSET 8.476499 7.247704 -3.868750
									CHANNELS 3 Xrotation Yrotation Zrotation
									JOINT LeftArm
									{
										OFFSET 9.308998 -2.777710 0.208600
										CHANNELS 3 Xrotation Yrotation Zrotation
										JOINT LeftForeArm
										{
											OFFSET 29.972298 0.000000 0.000000
											CHANNELS 3 Xrotation Yrotation Zrotation
											JOINT LeftHand
											{
												OFFSET 26.026505 0.000000 0.000000
												CHANNELS 3 Xrotation Yrotation Zrotation
												End Site
												{
													OFFSET 0 0 0
												}
											}
										}
									}
								}
							}
						}
						JOINT RightShoulder_virtual
						{
							OFFSET 0.000000 0.000000 0.000000
							CHANNELS 3 Xrotation Yrotation Zrotation
							JOINT RightShoulder
							{
								OFFSET -7.570500 7.247704 -3.868750
								CHANNELS 3 Xrotation Yrotation Zrotation
								JOINT RightShoulder_split
								{
									OFFSET -7.570500 7.247704 -3.868750
									CHANNELS 3 Xrotation Yrotation Zrotation
									JOINT RightArm
									{
										OFFSET -9.308998 -2.777710 0.208500
										CHANNELS 3 Xrotation Yrotation Zrotation
										JOINT RightForeArm
										{
											OFFSET -29.972300 0.000000 0.000000
											CHANNELS 3 Xrotation Yrotation Zrotation
											JOINT RightHand
											{
												OFFSET -26.026505 0.000000 0.000000
												CHANNELS 3 Xrotation Yrotation Zrotation
												End Site
												{
													OFFSET 0 0 0
												}
											}
										}
									}
								}
							}
						}
					}
				}
			}
		}
	}
}
MOTION
Frames: 9
Frame Time: 0.03333333
14.042957 95.793282 -12.309244 0.000000 0.000000 0.000000 -0.749896 -21.176090 0.176030 -7.218123 13.103220 -3.739640 14.736657 3.212783 5.485428 -5.575655 20.255162 -4.887634 -0.024455 -2.056673 0.312344 0.000000 0.000000 0.000000 -0.268791 -20.027583 0.234026 -11.428253 -7.825112 -8.283049 13.289673 8.310931 0.676379 -11.687243 -9.976782 10.186891 5.811162 3.816509 -8.830560 0.000000 0.000000 0.000000 -2.056544 -16.685122 -1.040585 3.488665 0.740921 -0.335559 -0.119646 -1.662250 0.012562 0.140749 -0.272262 0.036996 0.000000 0.000000 0.000000 1.189981 0.294515 -0.338603 -0.868286 8.712176 7.712671 -0.533591 1.420222 -14.322762 0.000000 0.000000 0.000000 0.038733 -1.103329 -0.486969 2.703287 -3.841538 -8.529533 2.249784 -1.608929 -3.863474 -11.427967 -9.964286 -60.748413 4.878994 -19.303641 -3.482108 0.000000 0.000000 0.000000 0.784268 -0.771733 -0.119523 2.598497 -3.881497 15.849384 -6.857626 -0.545619 -0.145729 6.236008 -0.665340 66.212455 -1.305557 17.344780 4.432595 0.000000 0.000000 0.000000 
14.644844 95.816757 -12.145975 0.000000 0.000000 0.000000 -0.679177 -22.076216 0.116336 -6.995394 13.253568 -4.226291 14.552003 3.250324 5.638044 -5.565931 20.685822 -4.616327 -0.318166 -1.938168 0.338241 0.000000 0.000000 0.000000 -0.202059 -20.850365 0.153568 -11.474950 -7.449813 -8.140732 13.066660 8.635769 0.614846 -11.939051 -10.106143 9.789874 5.916196 3.759493 -8.745273 0.000000 0.000000 0.000000 -2.020570 -17.378844 -1.178912 3.346516 0.479379 -0.453571 -0.106995 -1.841007 0.046615 0.150268 -0.273995 0.036126 0.000000 0.000000 0.000000 1.204777 0.113562 -0.325273 -0.842105 8.944494 7.881381 -0.514880 2.032977 -14.450592 0.000000 0.000000 0.000000 0.061191 -1.285857 -0.466967 2.787793 -4.252343 -8.706921 2.206709 -1.489100 -3.735991 -12.133844 -11.282479 -61.370370 5.113265 -19.670472 -3.552098 0.000000 0.000000 0.000000 0.780986 -0.940350 -0.102390 2.516642 -4.008165 16.249128 -6.766478 -0.602956 -0.257808 5.725663 -0.443741 66.736433 -0.825199 17.752819 4.113668 0.000000 0.000000 0.000000 
15.209423 95.845963 -11.987955 0.000000 0.000000 0.000000 -0.571375 -22.915841 0.038864 -6.839631 13.407589 -4.625573 14.394357 3.290749 5.807443 -5.508164 21.081835 -4.326906 -0.619423 -1.833931 0.360947 0.000000 0.000000 0.000000 -0.105290 -21.617407 0.056198 -11.471051 -7.127314 -7.944623 12.768751 8.860739 0.575676 -12.162882 -10.253878 9.307332 6.037761 3.697704 -8.620278 0.000000 0.000000 0.000000 -1.944293 -18.041793 -1.327538 3.202131 0.205566 -0.609986 -0.067179 -2.022516 0.088683 0.160945 -0.263634 0.031798 0.000000 0.000000 0.000000 1.251860 -0.069251 -0.300942 -0.793532 9.173008 8.036346 -0.595205 2.513989 -14.490692 0.000000 0.000000 0.000000 0.120626 -1.469139 -0.434293 2.863138 -4.717606 -8.863068 2.168794 -1.365341 -3.650922 -12.687727 -12.866904 -61.956789 5.356744 -20.286847 -3.560600 0.000000 0.000000 0.000000 0.819243 -1.110143 -0.073570 2.416764 -4.141796 16.708540 -6.696135 -0.663650 -0.389105 5.096417 -0.193683 67.218282 -0.237219 18.071221 3.772399 0.000000 0.000000 0.000000 
15.727793 95.887970 -11.843458 0.000000 0.000000 0.000000 -0.407282 -23.655199 -0.045104 -6.760851 13.565586 -4.940645 14.236926 3.327894 5.986318 -5.430515 21.424413 -4.020257 -0.888804 -1.744159 0.384888 0.000000 0.000000 0.000000 0.034813 -22.319287 -0.044364 -11.451737 -6.853007 -7.752844 12.400167 9.006252 0.576036 -12.222895 -10.393878 8.869936 6.051405 3.652780 -8.462253 0.000000 0.000000 0.000000 -1.805270 -18.649975 -1.470542 3.042441 -0.080592 -0.821622 -0.007275 -2.207098 0.130592 0.166850 -0.247675 0.029620 0.000000 0.000000 0.000000 1.322028 -0.254023 -0.275158 -0.720687 9.400294 8.186613 -0.736569 2.890333 -14.433559 0.000000 0.000000 0.000000 0.209013 -1.653287 -0.395262 2.929722 -5.220510 -8.969720 2.130836 -1.228165 -3.582920 -13.120320 -14.676717 -62.510260 5.615736 -21.177350 -3.500113 0.000000 0.000000 0.000000 0.892514 -1.282000 -0.044084 2.300904 -4.299929 17.219757 -6.643453 -0.743877 -0.548795 4.391184 0.066505 67.639370 0.453777 18.324421 3.404660 0.000000 0.000000 0.000000 
16.207108 95.944366 -11.715326 0.000000 0.000000 0.000000 -0.184142 -24.259799 -0.130312 -6.785141 13.724458 -5.167566 14.061744 3.338393 6.158584 -5.328521 21.680205 -3.739202 -1.145456 -1.667116 0.426755 0.000000 0.000000 0.000000 0.238635 -22.945310 -0.138102 -11.434909 -6.618396 -7.598722 11.950434 9.103178 0.628590 -12.091992 -10.498101 8.578367 5.946535 3.636151 -8.272618 0.000000 0.000000 0.000000 -1.585017 -19.185819 -1.599487 2.856338 -0.377188 -1.102077 0.064862 -2.394688 0.164456 0.171456 -0.229310 0.029482 0.000000 0.000000 0.000000 1.406166 -0.441121 -0.255423 -0.644100 9.623919 8.344804 -0.901865 3.193590 -14.266160 0.000000 0.000000 0.000000 0.318146 -1.838819 -0.358510 2.987421 -5.749199 -9.003760 2.088487 -1.088962 -3.559442 -13.464737 -16.647181 -63.035782 5.886897 -22.251230 -3.382323 0.000000 0.000000 0.000000 0.994377 -1.457891 -0.023934 2.172943 -4.490988 17.772328 -6.595868 -0.859345 -0.731215 3.670364 0.307539 68.004628 1.231815 18.584233 3.013089 0.000000 0.000000 0.000000 
16.644283 96.008736 -11.602453 0.000000 0.000000 0.000000 0.103804 -24.733642 -0.211963 -6.915324 13.866647 -5.309818 13.874202 3.314506 6.308546 -5.181190 21.843802 -3.508030 -1.414937 -1.603872 0.498209 0.000000 0.000000 0.000000 0.511646 -23.472638 -0.224729 -11.403126 -6.421240 -7.483253 11.418420 9.156206 0.728482 -11.871273 -10.559774 8.409579 5.790809 3.650559 -8.049975 0.000000 0.000000 0.000000 -1.279656 -19.637349 -1.707235 2.646589 -0.674803 -1.456674 0.142584 -2.583454 0.185793 0.173386 -0.209198 0.030701 0.000000 0.000000 0.000000 1.502355 -0.626681 -0.247626 -0.573524 9.844896 8.522242 -1.067327 3.449472 -13.974635 0.000000 0.000000 0.000000 0.445706 -2.023708 -0.330676 3.037417 -6.294109 -8.969240 2.041333 -0.929018 -3.547475 -13.717980 -18.709596 -63.525718 6.149862 -23.372214 -3.223924 0.000000 0.000000 0.000000 1.122188 -1.635802 -0.018859 2.038370 -4.710628 18.339719 -6.544885 -0.997706 -0.919597 3.003314 0.506929 68.322464 2.069100 18.925351 2.606362 0.000000 0.000000 0.000000 
17.044247 96.075478 -11.514151 0.000000 0.000000 0.000000 0.454513 -25.098119 -0.291288 -7.162771 13.981955 -5.371212 13.714419 3.278071 6.423856 -4.990332 21.936515 -3.312582 -1.674668 -1.549873 0.572022 0.000000 0.000000 0.000000 0.850801 -23.895157 -0.306215 -11.331204 -6.278421 -7.382275 10.860448 9.129168 0.859378 -11.698817 -10.617842 8.245490 5.695418 3.692562 -7.784120 0.000000 0.000000 0.000000 -0.903347 -20.001347 -1.796175 2.425504 -0.955239 -1.883629 0.226333 -2.765489 0.194389 0.173002 -0.202049 0.032023 0.000000 0.000000 0.000000 1.611151 -0.804684 -0.252047 -0.531532 10.056201 8.724107 -1.239552 3.693484 -13.547250 0.000000 0.000000 0.000000 0.588740 -2.203195 -0.313474 3.078677 -6.850367 -8.866695 1.981958 -0.792055 -3.564031 -13.871927 -20.738365 -63.946943 6.369306 -24.409517 -3.048212 0.000000 0.000000 0.000000 1.267991 -1.810309 -0.027011 1.899270 -4.936823 18.891560 -6.483992 -1.136443 -1.100570 2.445975 0.658800 68.603629 2.927967 19.371596 2.198722 0.000000 0.000000 0.000000 
17.402935 96.136925 -11.435175 0.000000 0.000000 0.000000 0.855987 -25.386273 -0.372000 -7.512997 14.070780 -5.353992 13.598870 3.254738 6.511628 -4.792492 21.983252 -3.126371 -1.923226 -1.499094 0.634359 0.000000 0.000000 0.000000 1.234363 -24.217882 -0.391687 -11.219085 -6.201629 -7.270252 10.318440 9.008741 1.017390 -11.640434 -10.690978 8.033312 5.687493 3.761636 -7.484311 0.000000 0.000000 0.000000 -0.480112 -20.283753 -1.876419 2.217900 -1.197448 -2.365083 0.317183 -2.931689 0.193155 0.174415 -0.195958 0.028423 0.000000 0.000000 0.000000 1.731340 -0.967402 -0.265931 -0.532239 10.254850 8.950661 -1.427700 3.948705 -12.980784 0.000000 0.000000 0.000000 0.750929 -2.370628 -0.306103 3.114517 -7.407430 -8.718107 1.904543 -0.671180 -3.604980 -13.929419 -22.616682 -64.262839 6.520954 -25.316407 -2.873058 0.000000 0.000000 0.000000 1.432193 -1.972081 -0.043810 1.757900 -5.139839 19.394795 -6.399372 -1.269256 -1.245811 2.048062 0.767406 68.849051 3.769640 19.887564 1.807259 0.000000 0.000000 0.000000 
17.703991 96.184296 -11.377710 0.000000 0.000000 0.000000 1.292132 -25.624937 -0.454164 -7.947146 14.133445 -5.268715 13.539458 3.274864 6.587825 -4.635647 22.004995 -2.931765 -2.136452 -1.446950 0.666248 0.000000 0.000000 0.000000 1.639850 -24.466223 -0.486901 -11.098604 -6.187190 -7.135311 9.828912 8.806049 1.190858 -11.686879 -10.772124 7.821104 5.639985 3.862236 -7.160994 0.000000 0.000000 0.000000 -0.038694 -20.501901 -1.954166 2.056030 -1.375865 -2.880036 0.422178 -3.069802 0.186820 0.174004 -0.189487 0.024894 0.000000 0.000000 0.000000 1.865939 -1.105107 -0.289112 -0.581008 10.436870 9.192264 -1.656829 4.256545 -12.283196 0.000000 0.000000 0.000000 0.934192 -2.515995 -0.303334 3.144794 -7.954071 -8.545772 1.818699 -0.589958 -3.649927 -13.881754 -24.215780 -64.416716 6.595063 -26.129061 -2.714083 0.000000 0.000000 0.000000 1.607841 -2.110591 -0.064616 1.614410 -5.293719 19.816457 -6.282653 -1.365928 -1.359914 1.814994 0.842022 69.044087 4.539880 20.394545 1.455442 0.000000 0.000000 0.000000 
